<?xml version="1.0" encoding="utf-8"?>
<!-- Generator: Adobe Illustrator 24.3.0, SVG Export Plug-In . SVG Version: 6.00 Build 0)  -->
<svg version="1.1" id="Layer_1" xmlns="http://www.w3.org/2000/svg" xmlns:xlink="http://www.w3.org/1999/xlink" x="0px" y="0px"
	 viewBox="0 0 1024 1024" style="enable-background:new 0 0 1024 1024;" xml:space="preserve">
<style type="text/css">
	.st0{fill:none;}
	.st1{fill:#7E5732;}
	.st2{fill:#8A6E4B;}
</style>
<g>
	<rect class="st0" width="1024" height="1024"/>
	<g id="Layer_2_1_">
		<g id="Layer_1-2">
			<path class="st1" d="M835.5,178.6c-9.7,2.7-19.2,6.1-28.4,10.3c-9.4,4.2-18.5,8.9-27.3,14.2c-8.9,5.3-17.6,11.3-26.4,17.2
				c-8.7,5.9-17.4,11.9-26.4,17.2c-8.8,5.3-17.9,10-27.3,14.2c-18.3,8.1-37.4,14.3-57,18.4c-19.3,4.3-38,7.9-54.8,13.5
				c-8.2,2.6-16.3,5.7-24.2,9.2c-7.4,3.4-14.4,7.7-20.9,12.6c-6.4,4.8-12.4,9.7-18.2,14.1c-5.4,4.1-11.1,7.7-17.1,11
				c-11,6.1-20.9,11.2-29,15.1c-8.1,3.9-14.6,6.8-19.1,8.7c-4.5,1.9-6.9,2.8-6.9,2.8l0.8,2c0,0,2.3-1.1,6.8-2.9
				c4.5-1.8,11-4.4,19.7-7.3c8.6-2.9,19-6.3,31.2-9.9c6.5-1.9,13.2-3.3,20-4.2c7.2-1,14.9-1.8,22.8-2.8c8.1-1.1,16.1-3.1,23.7-5.9
				c8-3.1,15.9-6.7,23.6-10.6c15.9-8,31.7-18.7,48.3-29.2c16.8-10.9,34.6-20.1,53.3-27.3c9.6-3.7,19.4-6.8,29.4-9.2
				c10.1-2.6,20.5-4.5,30.8-6.5s20.8-3.8,30.8-6.6c10-2.5,19.8-5.6,29.4-9.2c9.4-3.6,18.6-7.8,27.4-12.8c5.2-2.9,10.3-6.1,15.2-9.4
				v-33l-0.9,0.2c-9.8,1.7-19.6,3.6-29.3,6.3"/>
			<path class="st1" d="M310.8,195.2c2.6,8.2,5.6,16.3,9.1,24.2c3.5,7.4,7.7,14.4,12.7,20.9c4.8,6.4,9.7,12.4,14.1,18.2
				c4.1,5.4,7.9,11.1,11.2,17.1c6,11,11.2,20.8,15.1,29c3.9,8.2,6.8,14.6,8.7,19.1c1.9,4.5,2.8,6.9,2.8,6.9l2-0.9
				c0,0-1.1-2.3-2.9-6.8c-1.8-4.5-4.4-11-7.4-19.7s-6.3-19-9.9-31.2c-1.9-6.5-3.3-13.2-4.2-20c-1-7.2-1.8-14.9-2.9-22.8
				c-1.1-8.1-3-16.1-5.8-23.7c-3.1-8.1-6.7-15.9-10.7-23.6c-7.9-15.9-18.6-31.7-29.2-48.3c-7.1-11-13.6-22.4-19.3-34.2h-8.8
				c4.9,13.3,8.8,27,11.8,40.9C301.6,159.7,305.2,178.3,310.8,195.2"/>
			<path class="st1" d="M209.2,315.5c7.7,4,15.5,7.5,23.6,10.7c7.7,2.8,15.6,4.7,23.7,5.8c7.9,1.2,15.6,1.9,22.8,2.8
				c6.7,0.9,13.4,2.3,20,4.2c12.1,3.6,22.7,6.8,31.2,9.9c8.5,3,15.2,5.5,19.7,7.4c4.5,1.9,6.8,2.9,6.8,2.9l0.8-2
				c0,0-2.4-0.9-6.9-2.8s-11-4.7-19.1-8.7c-8.1-4-17.9-9-29-15.1c-5.9-3.3-11.6-7-17.1-11c-5.8-4.3-11.8-9.3-18.2-14.1
				c-6.5-5-13.5-9.2-20.9-12.7c-7.9-3.5-16-6.6-24.2-9.2c-16.9-5.5-35.6-9.1-54.9-13.4c-13.9-3-27.6-6.9-40.9-11.8v8.7
				c11.8,5.7,23.2,12.1,34.2,19.3C177.3,296.8,193.2,307.5,209.2,315.5"/>
			<path class="st1" d="M222.4,472.3c8.2-2.6,16.3-5.7,24.2-9.1c7.4-3.5,14.4-7.7,20.9-12.7c6.4-4.8,12.4-9.7,18.2-14.1
				c5.4-4.1,11.1-7.7,17.1-11c11-6.1,20.9-11.2,29-15.1s14.6-6.8,19.1-8.7c4.5-1.9,6.9-2.8,6.9-2.8l-0.8-2c0,0-2.3,1.1-6.8,2.9
				c-4.5,1.8-11,4.4-19.7,7.3c-8.6,2.9-19,6.3-31.2,9.9c-6.6,1.8-13.2,3.2-20,4.1c-7.2,1-14.9,1.7-22.8,2.9
				c-8.1,1.1-16.1,3-23.7,5.8c-8,3.1-15.9,6.6-23.6,10.5c-15.9,8-31.8,18.7-48.4,29.2c-11,7.1-22.4,13.6-34.2,19.3v8.8
				c13.3-4.9,27-8.8,40.9-11.8C186.8,481.6,205.5,477.9,222.4,472.3"/>
			<path class="st1" d="M254.6,795.9c3.7-9.6,6.7-19.4,9.2-29.4c2.6-10.1,4.5-20.5,6.5-30.8s3.9-20.8,6.5-30.8
				c2.5-10,5.6-19.8,9.2-29.4c7.2-18.7,16.4-36.5,27.3-53.3c10.5-16.5,21.2-32.4,29.2-48.3c4-7.7,7.5-15.5,10.6-23.6
				c2.8-7.7,4.8-15.6,5.9-23.7c1.1-7.9,1.8-15.6,2.9-22.8c0.9-6.7,2.3-13.4,4.2-20c3.6-12.1,6.9-22.7,9.9-31.2
				c3-8.5,5.5-15.2,7.4-19.7c1.9-4.5,2.9-6.8,2.9-6.8l-2-0.9c0,0-0.9,2.4-2.8,6.9s-4.7,11-8.7,19.1s-9,17.9-15.1,29
				c-3.3,5.9-7,11.7-11,17.1c-4.3,5.8-9.3,11.8-14.1,18.2c-4.9,6.5-9.2,13.5-12.6,20.9c-3.5,7.9-6.5,16-9.1,24.2
				c-5.5,16.9-9.2,35.8-13.5,54.8c-4.1,19.6-10.3,38.7-18.4,57c-4.2,9.4-9,18.5-14.3,27.3c-5.3,8.9-11.3,17.6-17.2,26.3
				c-5.9,8.7-11.9,17.4-17.2,26.4c-5.3,8.8-10,17.9-14.2,27.3c-4.1,9.2-7.6,18.7-10.3,28.4c-2.8,9.7-4.6,19.5-6.3,29.3
				c0,0.3,0,0.6-0.1,0.9h33c3.3-5,6.5-10,9.5-15.2C246.9,814.5,251.1,805.4,254.6,795.9"/>
			<path class="st1" d="M604.5,808.4c-2.7-9.7-6.2-19.2-10.3-28.4c-4.2-9.4-8.9-18.5-14.2-27.3c-5.3-9-11.2-17.7-17.1-26.4
				c-5.9-8.8-11.8-17.5-17.1-26.4c-5.3-8.8-10-17.9-14.2-27.3c-8.1-18.3-14.2-37.4-18.4-57c-4.3-19.3-8-37.9-13.8-54.8
				c-2.6-8.2-5.7-16.3-9.2-24.2c-3.5-7.4-7.7-14.4-12.7-20.9c-4.8-6.4-9.8-12.4-14.2-18.2c-4.1-5.4-7.8-11.2-11-17.1
				c-6-11-11-20.9-15-29c-4-8.1-6.8-14.7-8.6-19.1c-1.9-4.5-2.8-6.9-2.8-6.9l-2,0.8c0,0,1.1,2.3,2.9,6.8c1.8,4.5,4.4,11,7.4,19.6
				c3,8.6,6.3,19,10,31.1c1.9,6.5,3.3,13.2,4.2,20c1,7.2,1.7,15,2.8,22.9c1.1,8.1,3,16.1,5.8,23.8c3.1,8,6.7,15.9,10.6,23.6
				c7.9,15.9,18.6,31.8,29,48.4c10.9,16.8,20,34.6,27.3,53.3c3.6,9.6,6.7,19.4,9.2,29.4c2.6,10.1,4.5,20.5,6.6,30.8
				c2,10.3,4,20.7,6.6,30.7c2.6,10,5.7,19.8,9.4,29.4c3.6,9.4,7.9,18.6,12.8,27.4c3,5.2,6.2,10.3,9.5,15.2h33c0-0.3,0-0.6-0.1-0.9
				C609.1,827.9,607.2,818,604.5,808.4"/>
			<path class="st1" d="M850.4,541.3c-8.8-5-17.9-9.3-27.4-12.8c-9.6-3.7-19.4-6.8-29.4-9.3c-10-2.6-20.5-4.5-30.8-6.5
				c-10.4-2-20.7-3.9-30.8-6.5c-10-2.5-19.8-5.6-29.4-9.2c-18.7-7.2-36.5-16.4-53.3-27.3c-16.5-10.5-32.4-21.2-48.3-29.2
				c-7.7-4-15.5-7.5-23.6-10.7c-7.7-2.8-15.6-4.7-23.7-5.8c-7.9-1.1-15.7-1.9-22.9-2.9c-6.7-0.9-13.4-2.3-20-4.2
				c-12.1-3.6-22.7-6.8-31.2-9.9c-8.5-3.1-15.1-5.5-19.6-7.3c-4.5-1.8-6.8-2.9-6.8-2.9l-0.8,2c0,0,2.4,0.9,6.9,2.8
				c4.5,1.9,11,4.7,19.1,8.7c8.1,4,17.9,9,29,15.1c5.9,3.3,11.6,6.9,17.1,11c5.8,4.4,11.8,9.3,18.2,14.1c6.5,5,13.5,9.2,20.9,12.7
				c7.9,3.5,16,6.5,24.2,9.1c16.8,5.5,35.6,9.2,54.8,13.5c19.6,4.1,38.7,10.3,57,18.4c9.4,4.2,18.5,8.9,27.3,14.2
				c8.9,5.3,17.6,11.3,26.4,17.2c8.7,5.9,17.4,11.9,26.4,17.2c8.8,5.3,17.9,10,27.3,14.2c9.2,4.1,18.7,7.6,28.4,10.3
				c9.7,2.8,19.5,4.6,29.3,6.3l0.9,0.1v-33C860.7,547.4,855.7,544.2,850.4,541.3"/>
			<path class="st1" d="M467.6,182c-4,7.7-7.5,15.5-10.7,23.6c-2.8,7.7-4.7,15.6-5.8,23.7c-1.1,7.9-1.8,15.6-2.9,22.8
				c-0.9,6.7-2.3,13.4-4.2,20c-3.6,12.1-6.8,22.7-9.9,31.2c-3,8.5-5.5,15.2-7.4,19.7c-1.9,4.5-2.9,6.8-2.9,6.8l2,0.9
				c0,0,0.9-2.4,2.8-6.9c1.9-4.5,4.7-11,8.7-19.1s9-17.9,15.1-29c3.3-5.9,6.9-11.7,11-17.1c4.4-5.8,9.3-11.8,14.1-18.2
				c5-6.5,9.2-13.5,12.7-20.9c3.5-7.9,6.5-16,9.1-24.2c5.5-16.9,9.2-35.6,13.6-54.8c3-13.9,6.9-27.6,11.8-40.9h-8.9
				c-5.7,11.8-12.1,23.2-19.3,34.2c-10.5,16.5-21.2,32.4-29.2,48.3"/>
			<path class="st1" d="M405.1,358.2c-10.9,0-19.8,8.8-19.8,19.8c0,10.9,8.8,19.8,19.8,19.8c10.9,0,19.8-8.8,19.8-19.8c0,0,0,0,0,0
				C424.9,367.1,416.1,358.2,405.1,358.2"/>
			<path class="st2" d="M404.9,137.4h0.5c3.6-6.5,6.7-13.3,9.1-20.3c1.8-5,3.7-11,5.5-17.6h-29.5c1.7,6.6,3.6,12.6,5.5,17.6
				c2.4,7,5.5,13.8,9.1,20.3"/>
			<path class="st2" d="M405.1,326.9c2.1,0,16.5-38.5,16.5-86.3s-13.8-86.2-16.5-86.2s-16.5,38.5-16.5,86.2S403,326.9,405.1,326.9"
				/>
			<path class="st2" d="M247,219.9c-1.9,2,15.6,39,49.3,72.7s71.2,50.8,72.6,49.3s-15.6-39.1-49.3-72.6S248.9,217.9,247,219.9"/>
			<path class="st2" d="M267.8,361.5c-47.6,0-86.2,13.8-86.2,16.5s38.5,16.5,86.2,16.5S354,380.1,354,378
				C354,375.9,315.5,361.5,267.8,361.5"/>
			<path class="st2" d="M164.5,378c0-0.4-1.3-1.2-3.6-2.1c-5.4-2.7-10.9-5.1-16.5-7.1c-5.1-1.8-11-3.7-17.6-5.5v29.4
				c6.7-1.8,12.6-3.6,17.6-5.5c5.7-2,11.2-4.4,16.5-7.1C163.2,379,164.5,378.3,164.5,378"/>
			<path class="st2" d="M296.4,463.5c-33.7,33.7-51.3,70.7-49.3,72.6s39-15.6,72.6-49.3s50.8-71.2,49.3-72.6
				C367.5,412.7,329.9,429.8,296.4,463.5"/>
			<path class="st2" d="M231.8,551.4c-0.3-0.3-1.3,0-2.8,0.4l0,0c-6,1.9-11.8,4.2-17.4,6.9c-7.3,3.4-14.3,7.2-21.2,11.5
				c-8.6,5.4-16.9,11.2-24.8,17.5c-4.3,3.4-8.7,7.2-13,11.2c-4.6,4-8.8,8.5-12.7,13.2c-4.1,5.1-7.8,10.5-11,16.2
				c-0.7,1.2-1.3,2.4-2,3.6v38.8c3.2-2,6.6-4,10-5.8c6.2-3.4,12.4-6.8,18.3-10.2c5.7-3.2,11.1-6.9,16.2-11
				c4.7-3.9,9.1-8.1,13.2-12.7c4-4.4,7.7-8.7,11-13c6.3-7.9,12.2-16.2,17.6-24.8c4.3-6.8,8.1-13.9,11.5-21.2
				c2.4-5.1,4.5-10.4,6.2-15.8c1-2.6,1.3-4.2,1-4.5"/>
			<path class="st2" d="M162.5,142.3c5.2,5,9.2,11.1,11.7,17.9c2.8,6.8,5.2,13.8,9.1,18.6c1.8,2.4,3.9,4.7,6.2,6.6
				c2.2,1.9,4.4,3.7,6.7,5.3c4.1,3,8.5,5.6,13.1,7.9c3.7,1.8,7.6,3.4,11.6,4.6c2.8,0.8,5.6,1.5,8.4,2c2.1,0.3,3.2,0.4,3.2,0.4
				l0.4-0.4c0,0,0-1.2-0.4-3.2c-0.5-2.8-1.2-5.7-2-8.4c-1.2-4-2.8-7.8-4.6-11.6c-2.2-4.6-4.9-9-7.9-13.1c-1.6-2.2-3.4-4.5-5.3-6.7
				c-1.9-2.3-4.1-4.4-6.6-6.2c-5-3.9-11.8-6.3-18.6-9.1c-6.8-2.5-13-6.5-17.9-11.7c-5-5.6-8.9-11.9-11.7-18.9
				c-2.4-5.9-5.2-11.5-8.4-17h-22.7v22.7c5.5,3.2,11.1,6,17,8.4C150.6,133.4,157,137.3,162.5,142.3"/>
			<path class="st2" d="M946.9,896.2c34,34,51.3,71.9,49.8,73.4c-1.5,1.5-39.3-15.8-73.4-49.8c-34.1-34-51.7-71.4-49.7-73.4
				C875.6,844.5,912.9,862.2,946.9,896.2"/>
			<path class="st2" d="M118.8,91.7c0,0-0.7,0-1.8-0.2c-1.2-0.2-2.9-0.4-5-0.8c-5.4-1.1-10.7-2.8-15.9-4.9
				c-6.7-2.7-13.2-6.2-19.3-10.2c-6.7-4.4-12.8-9.5-18.5-15.2C52.7,54.8,47.6,48.6,43.1,42c-2.1-3.1-4-6.4-5.8-9.7
				c-1.7-3.2-3.1-6.4-4.4-9.5c-2.1-5.1-3.7-10.5-4.8-15.9c-0.5-2-0.6-3.9-0.8-5S27.1,0,27.1,0s0.7,0,1.9,0.2S32,0.6,34,1
				c5.4,1.1,10.8,2.8,15.9,4.9c3.2,1.3,6.4,2.8,9.5,4.4c3.3,1.8,6.6,3.7,9.7,5.8c6.6,4.4,12.8,9.5,18.4,15.2
				c5.7,5.7,10.7,11.9,15.2,18.5c4,6.1,7.4,12.5,10.2,19.3c2.1,5.1,3.7,10.5,4.9,15.9c0.5,2,0.6,3.8,0.8,5
				C118.7,90.5,118.8,91.2,118.8,91.7"/>
			<path class="st2" d="M428.4,787.7c-2.1-19-5.2-37.8-9.6-56.4c-4.2-18.5-6.5-37.4-7-56.4c-0.3-9.2,0.2-18.4,1.3-27.5
				c1.1-9.1,2.8-18.1,4.8-27s4-17.6,5.8-26.1c1.7-8.2,2.9-16.6,3.6-25c0.6-7.9,0.7-15.8,0.3-23.6c-0.3-7.7-0.7-15-1.3-22
				c-1.2-14.2-3.1-27.1-5.1-38.5c-2.1-11.4-4.5-21.5-6.8-29.8l0,0c-3.9-15.9-8.1-25.8-9.1-25.8c-1,0-5.5,10.2-9.4,26.6
				c-2.3,8.3-4.7,18-6.7,29.2c-2,11.2-3.9,24.5-5.1,38.5c-0.6,7.1-1,14.5-1.3,22c-0.4,7.9-0.3,15.8,0.3,23.6
				c0.7,8.4,1.9,16.7,3.6,25c1.8,8.5,3.8,17.2,5.8,26.1c2,8.9,3.7,17.9,4.8,27c1.1,9.1,1.5,18.3,1.3,27.5c-0.5,19-2.8,37.9-7,56.4
				c-4.3,18.6-7.5,37.4-9.6,56.4c-1.5,17.3-3.1,34.3-4.2,50.8h55.1c-1.2-16.5-2.8-33.5-4.3-50.8"/>
			<path class="st2" d="M657.9,99.5c-4.2,6.2-8.4,12.6-12.6,18.9c-10.1,16-21.8,31.1-34.9,44.8c-6.4,6.7-13.2,12.9-20.4,18.6
				c-7.2,5.6-14.7,10.8-22.5,15.7c-7.7,4.9-15.2,9.6-22.5,14.4c-7,4.6-13.8,9.7-20.2,15.1c-6,5.1-11.7,10.7-17,16.5
				c-5.2,5.5-10.1,11-14.7,16.5c-9.2,11-17,21.4-23.7,31s-11.6,17.7-15.7,25c-8.9,14.6-13.2,25-12.4,25.8c0.8,0.7,11-3.4,25.2-12
				c7.4-4.2,16.1-9.5,25.6-16.1c9.5-6.6,20.1-14.5,31-23.7c5.5-4.6,11-9.5,16.5-14.7c5.8-5.3,11.4-11,16.5-17
				c5.5-6.4,10.5-13.2,15.1-20.2c4.8-7.3,9.5-14.8,14.4-22.5s10-15.2,15.7-22.5c5.7-7.3,11.9-14.1,18.6-20.4
				c13.8-13.1,28.8-24.8,44.8-34.9c16.2-10.1,31.8-21.1,46.6-33l6.2-5.2L657.9,99.5z"/>
			<path class="st2" d="M814.9,354.7c-19,2.1-37.8,5.3-56.4,9.6c-18.5,4.2-37.4,6.5-56.4,7c-9.2,0.3-18.4-0.1-27.5-1.2
				c-9.1-1.1-18.1-2.8-27-4.8s-17.6-4-26.1-5.8c-8.3-1.7-16.6-2.9-25-3.6c-7.9-0.6-15.8-0.7-23.6-0.3c-7.6,0.3-15,0.7-22,1.3
				c-14.1,1.2-27.1,3.1-38.5,5.1c-11.4,2-21.1,4.4-29.3,6.7c-16.3,3.9-26.5,8.3-26.5,9.3s10.1,5.3,26.4,9.3
				c8.3,2.3,18.1,4.7,29.4,6.7c11.3,2,24.5,3.9,38.5,5.1c7.1,0.6,14.5,1,22,1.3c7.9,0.4,15.8,0.2,23.6-0.3c8.4-0.7,16.7-1.9,25-3.6
				c8.5-1.8,17.2-3.8,26.1-5.8c8.9-2.1,17.9-3.7,27-4.8c9.1-1.1,18.3-1.5,27.5-1.3c19,0.5,37.9,2.8,56.4,7
				c18.6,4.3,37.4,7.5,56.4,9.6c17.3,1.5,34.3,3.1,50.8,4.3v-55.1C849.2,351.7,832.2,353.2,814.9,354.7"/>
			<path class="st2" d="M856.7,818.2c-1.4-2.8-3-5.5-4.9-8.8c-11.6-19.8-24.4-38.8-38.5-56.8c-8.6-11-18.3-22.9-29-34.8
				c-11.2-12.5-23.1-24.2-35.8-35.2c-13.2-11.5-27.1-23.1-41.3-34.9c-14.6-11.8-30-22.6-45.9-32.6c-15.1-9.6-29.2-20.5-42.2-32.7
				c-6.4-6.1-12.4-12.7-17.9-19.6c-5.6-7.2-10.8-14.7-15.7-22.5c-4.9-7.7-9.6-15.3-14.4-22.5c-4.6-7-9.7-13.8-15.1-20.2
				c-5.2-6-10.7-11.6-16.5-17c-5.5-5.2-11-10.1-16.5-14.7c-10.8-9.2-21.4-17-31-23.7c-9.6-6.7-18.2-11.9-25.7-16.1
				c-13.6-8.3-23.3-12.3-24.8-12h-0.2l0,0l0,0c-0.6,1.2,3.9,11.8,12.9,26.4c4,7.1,9.1,15.3,15.2,24.2c6.7,9.6,14.5,20.1,23.7,31
				c4.6,5.5,9.5,11,14.7,16.5c5.3,5.8,11,11.3,17,16.5c6.4,5.4,13.2,10.5,20.2,15.1c7.3,4.8,14.9,9.5,22.5,14.4
				c7.7,4.9,15.2,10,22.5,15.7c6.9,5.5,13.5,11.5,19.6,17.9c12.2,13,23.1,27.2,32.7,42.3c10,15.9,20.9,31.3,32.6,45.9
				c11.8,14.1,23.3,28,34.9,41.3c11,12.6,22.8,24.6,35.2,35.8c11.9,10.7,23.7,20.3,34.8,29c18.1,14.1,37.1,27,56.8,38.5
				c3.4,2,6.4,3.6,9.1,5c11.3,6.5,19,9.5,19.9,8.6c0.9-0.9-2.2-8.8-8.8-20.2"/>
			<path class="st1" d="M202.1,923.5c-5.9-0.1-11.7,1.1-17.1,3.3c-5.1,2.2-9.8,5.4-13.6,9.5c-3.9,4.3-7,9.4-8.9,14.9
				c-2.2,6.3-3.3,12.9-3.2,19.6c-0.1,6.7,1.1,13.3,3.5,19.6c2.1,5.5,5.3,10.6,9.4,14.9c4,4.1,8.8,7.3,14.1,9.5
				c5.5,2.2,11.5,3.4,17.5,3.3c4.2,0.1,8.3-0.6,12.3-1.9c3.5-1.2,6.8-2.9,9.7-5.2v-36.1h-19.4v-6.1h36.7v45.3c-3,1.6-6,3-9.1,4.3
				c-3.2,1.2-6.5,2.2-9.9,3c-3.8,0.9-7.7,1.5-11.7,1.9c-4.3,0.4-9.1,0.6-14.5,0.6c-5.5,0-10.9-0.6-16.2-1.9c-5-1.2-9.7-3.1-14.3-5.5
				c-4.3-2.2-8.3-5-11.8-8.3c-3.5-3.2-6.5-6.8-9-10.8c-2.5-3.9-4.4-8.2-5.7-12.7c-1.3-4.5-2-9.3-2-14c0-4.8,0.6-9.5,1.9-14.1
				c1.3-4.5,3.1-8.9,5.5-12.9c2.4-4.1,5.3-7.8,8.7-11.1c3.5-3.4,7.3-6.3,11.6-8.7c4.4-2.5,9.1-4.4,14-5.7c5.3-1.4,10.7-2.1,16.2-2
				c5.1,0,10.2,0.7,15.1,2.2c4.4,1.4,8.7,3.4,12.6,5.9c3.7,2.4,7.1,5.2,10.2,8.5c2.9,3.1,5.4,6.4,7.6,10l-7.5,5
				c-3.4-7.1-8.3-13.4-14.5-18.3c-5.3-3.9-11.7-6-18.3-5.9"/>
			<polygon class="st1" points="345.9,918.5 363.2,918.5 363.2,1014.8 415,1014.8 415,1021.5 345.9,1021.5 			"/>
			<path class="st1" d="M560.5,1024c-5.2,0-10.3-0.6-15.3-2c-4.8-1.2-9.3-3.1-13.6-5.5c-4.2-2.3-8-5.2-11.5-8.5
				c-3.4-3.3-6.4-7-8.8-11c-2.4-4.1-4.3-8.4-5.5-13c-1.4-4.7-2-9.6-2-14.5c0-4.8,0.7-9.6,2-14.2c1.3-4.5,3.1-8.7,5.5-12.7
				c2.4-4,5.4-7.6,8.8-10.8c7.1-6.6,15.7-11.4,25.1-13.8c10.1-2.5,20.6-2.5,30.6,0c4.7,1.2,9.3,3,13.6,5.4c4.1,2.3,8,5,11.5,8.3
				c3.4,3.2,6.4,6.8,8.8,10.8c2.4,4,4.2,8.3,5.5,12.7c1.3,4.6,2,9.4,2,14.2c0,4.9-0.7,9.7-2,14.5c-1.3,4.6-3.1,8.9-5.5,13
				c-2.4,4-5.4,7.7-8.8,11c-3.4,3.3-7.3,6.2-11.5,8.5c-8.8,4.9-18.8,7.5-28.9,7.5 M560.5,1018.7c5.4,0.1,10.8-1.2,15.6-3.7
				c4.6-2.5,8.5-6,11.4-10.3c3.2-4.8,5.6-10,7-15.6c1.7-6.5,2.5-13.1,2.4-19.8c0-6.5-0.8-13-2.4-19.3c-1.4-5.5-3.8-10.6-7-15.2
				c-3-4.2-6.9-7.6-11.4-9.9c-4.8-2.4-10.2-3.7-15.6-3.6c-5.5-0.1-11,1.1-15.9,3.6c-4.5,2.3-8.5,5.8-11.4,9.9
				c-3.2,4.6-5.6,9.8-6.9,15.2c-1.6,6.3-2.4,12.8-2.3,19.3c-0.1,6.7,0.7,13.3,2.3,19.8c1.3,5.6,3.7,10.9,6.9,15.6
				C539.3,1013.8,549.6,1019,560.5,1018.7"/>
			<polygon class="st1" points="716,918.5 746.7,996.8 773.7,926.1 801.7,997.1 831.6,918.5 840.1,918.5 800.5,1022.3 795.2,1022.3 
				769.9,958.1 745.4,1022.3 739.5,1022.3 698.6,918.5 			"/>
		</g>
	</g>
</g>
</svg>
